<?xml version="1.0" encoding="utf-8"?>
<!-- Generator: Adobe Illustrator 22.1.0, SVG Export Plug-In . SVG Version: 6.00 Build 0)  -->
<svg version="1.1" id="Capa_1" xmlns="http://www.w3.org/2000/svg" xmlns:xlink="http://www.w3.org/1999/xlink" x="0px" y="0px"
	 viewBox="0 0 512 512" style="enable-background:new 0 0 512 512;" xml:space="preserve">
<g>
	<path d="M322.6,365c5.9,5.9,15.4,5.9,21.2,0l127.3-127.3c5.9-5.9,5.9-15.4,0-21.2l-42.4-42.4c-2.2-2.2-5.2-3.8-8.4-4.2
		c-58-8.7-105.4-53.8-114.6-114.6c-0.4-3-1.9-6.1-4.2-8.4L259,4.4c-5.9-5.9-15.4-5.9-21.2,0L110.5,131.7c-5.9,5.9-5.9,15.4,0,21.2
		l42.4,42.4c2.3,2.3,5.4,3.8,8.4,4.2c0.3,0,17.9,2.8,38.6,12.4L4.4,407.4c-5.9,5.9-5.9,15.4,0,21.2l42.4,42.4
		c5.9,5.9,15.4,5.9,21.2,0l195.5-195.5c9.6,20.7,12.4,38.3,12.4,38.6c0.5,3.3,2.1,6.4,4.2,8.4L322.6,365z M333.2,333.2L312,312
		l106.1-106.1l21.2,21.2L333.2,333.2z M388.9,192.6l-90.2,90.2c-18-53.3-52.6-88-106.1-106.1l90.2-90.2
		C300.9,139.9,335.5,174.6,388.9,192.6z M248.3,36.2l21.2,21.2L163.5,163.5l-21.2-21.2L248.3,36.2z M57.4,439.3l-21.2-21.2
		l190.2-190.2c8,6.1,14.8,12.8,21.2,21.2L57.4,439.3z"/>
	<path d="M467,422H347c-24.8,0-45,20.2-45,45v30c0,8.3,6.7,15,15,15h180c8.3,0,15-6.7,15-15v-30C512,442.2,491.8,422,467,422z
		 M482,482H332v-15c0-8.3,6.7-15,15-15h120c8.3,0,15,6.7,15,15V482z"/>
</g>
</svg>
