<?xml version="1.0" encoding="utf-8"?>
<!-- Generator: Adobe Illustrator 22.1.0, SVG Export Plug-In . SVG Version: 6.00 Build 0)  -->
<svg version="1.1" id="Capa_1" xmlns="http://www.w3.org/2000/svg" xmlns:xlink="http://www.w3.org/1999/xlink" x="0px" y="0px"
	 viewBox="0 0 389.7 320.2" style="enable-background:new 0 0 389.7 320.2;" xml:space="preserve">
<path d="M82.2,182.1c-0.5,0.1-1,0.1-1.6,0.1s-1.1,0-1.6-0.1c-21.8-3.9-41.9-15.4-56.3-32.5C8.1,132.3,0,110.4,0,87.8V32.4
	C0,25,4.7,14.7,27.2,7.3C41.6,2.6,60.6,0,80.7,0s39.1,2.6,53.5,7.3c22.5,7.3,27.2,17.7,27.2,25.1c0,0.1,0,0.1,0,0.2v55.2
	c0,22.6-8.1,44.5-22.7,61.8C124.1,166.7,104.1,178.3,82.2,182.1z M143.3,87.8V32.6C141.6,28.4,120.7,18,80.7,18
	C40.6,18,19.8,28.4,18,32.6v55.2c0,37.2,26.3,69.1,62.7,76.3C117.1,156.9,143.3,125,143.3,87.8z M267,277.7c0,5-4,9-9,9h-52
	c-4.1,19.1-21.2,33.5-41.5,33.5c-20.8,0-38.2-15.1-41.8-34.9c-7.2-2.3-13.2-7.1-16.4-13.5c-1.6-3.2-2.4-6.6-2.4-10.2v-60
	c0-5,4-9,9-9s9,4,9,9v60c0,0.7,0.2,1.4,0.5,2.1c0.3,0.6,0.8,1.2,1.4,1.8c5.2-17.5,21.5-30.3,40.7-30.3c20.3,0,37.4,14.4,41.5,33.5
	h52C263,268.7,267,272.7,267,277.7z M189,277.7c0-13.5-11-24.5-24.5-24.5c-13.4,0-24.3,10.9-24.5,24.3c0,0.1,0,0.2,0,0.3
	c0.1,13.4,11,24.3,24.5,24.3C178,302.2,189,291.2,189,277.7z M389.7,242.4v5.8c0,3.8,0,8.1,0,13.4c0,10.8-7.7,20.1-18.7,23.6
	c-3.5,19.9-20.9,35-41.8,35c-23.4,0-42.5-19-42.5-42.5s19-42.5,42.5-42.5c19.1,0,35.4,12.7,40.7,30.2c1.1-1.1,1.8-2.5,1.8-3.9
	c0-5.3,0-9.7,0-13.4v-5.8c0-7.2,0.1-17,0-21.6c-0.1-3.3-0.2-6-0.4-8.3H232.8c-3.2,0-10.8,0-33.9-22.9c-7.1-7-21.1-21.8-23.7-28
	c-1.9-4.6,0.3-9.9,4.9-11.8c4.5-1.9,9.7,0.2,11.7,4.7c1.2,2.2,8.5,11.2,19.2,21.7c13.4,13.3,20.5,17.6,22.4,18.3h127.8
	c-2.9-2.8-6.6-6.1-11.4-10.3c-2.5-2.2-5.2-4.6-8.2-7.3c-2.2-2-4.4-4-6.5-6c-3.1-2.9-6.2-5.9-9.5-8.7c-2.9-2.4-5.7-4.8-8.3-7
	C284,127,275,119.4,246.8,119.4h-62.1c-5,0-9-4-9-9s4-9,9-9h62.1c34.7,0,48.6,11.7,82.1,39.9c2.6,2.2,5.3,4.5,8.2,6.9
	c3.7,3.1,7.1,6.4,10.4,9.5c2.1,2,4.1,3.9,6,5.7c3,2.7,5.6,5,8.1,7.2c21.6,19.1,27.4,24.2,27.9,49.7
	C389.8,225.1,389.7,234.7,389.7,242.4z M353.6,277.6c-0.1-13.4-11-24.4-24.5-24.4s-24.5,11-24.5,24.5s11,24.5,24.5,24.5
	s24.4-11,24.5-24.4C353.6,277.7,353.6,277.7,353.6,277.6z M329.2,268.7L329.2,268.7c-5,0-9,4-9,9s4,9,9,9s9-4,9-9
	S334.2,268.7,329.2,268.7z M149.3,203.4c0,5,4,9,9,9h10.1c5,0,9-4,9-9s-4-9-9-9h-10.1C153.3,194.4,149.3,198.4,149.3,203.4z
	 M164.6,268.7L164.6,268.7c-5,0-9,4-9,9s4,9,9,9s9-4,9-9S169.5,268.7,164.6,268.7z"/>
</svg>
