<?xml version="1.0" encoding="utf-8"?>
<!-- Generator: Adobe Illustrator 22.1.0, SVG Export Plug-In . SVG Version: 6.00 Build 0)  -->
<svg version="1.1" id="Capa_1" xmlns="http://www.w3.org/2000/svg" xmlns:xlink="http://www.w3.org/1999/xlink" x="0px" y="0px"
	 viewBox="0 0 33.2 60.7" style="enable-background:new 0 0 33.2 60.7;" xml:space="preserve">
<g>
	<g>
		<path d="M4.6,8.6C7.1,5.8,10.6,4.5,15,4.4V0h3.2v4.4C22.6,4.7,26,6,28.4,8.3c2.4,2.3,3.6,5.3,3.7,9.1h-5.8
			c-0.2-1.7-0.6-3.1-1.4-4.4c-1.4-2.2-3.6-3.4-6.7-3.5v16.2c5.1,1.4,8.6,2.8,10.5,4.1c3,2.1,4.5,5.2,4.5,9.2
			c0,5.9-1.9,10.1-5.8,12.6c-2.1,1.4-5.2,2.3-9.2,2.7v6.5H15v-6.5c-6.5-0.4-10.8-2.7-13.1-6.9C0.6,45.2,0,42.1,0,38.3h5.9
			c0.2,3,0.7,5.3,1.4,6.7c1.4,2.5,4,3.9,7.7,4.2V31.1c-4.8-0.9-8.4-2.4-10.7-4.6c-2.3-2.1-3.4-5.1-3.4-8.9
			C0.9,14.3,2.2,11.3,4.6,8.6z M9.1,22.4c1.5,1.2,3.4,2.1,5.9,2.6V9.4c-2.9,0.1-5,1-6.3,2.7c-1.2,1.7-1.9,3.4-1.9,5.2
			C6.9,19.5,7.7,21.2,9.1,22.4z M26.1,45.2c0.8-1.3,1.1-2.9,1.1-4.6c0-2.8-1-4.9-3.1-6.3c-1.2-0.8-3.2-1.6-5.9-2.4v17.5
			C22,49.2,24.6,47.8,26.1,45.2z"/>
	</g>
</g>
</svg>
