<?xml version="1.0" encoding="utf-8"?>
<!-- Generator: Adobe Illustrator 22.1.0, SVG Export Plug-In . SVG Version: 6.00 Build 0)  -->
<svg version="1.1" id="Capa_1" xmlns="http://www.w3.org/2000/svg" xmlns:xlink="http://www.w3.org/1999/xlink" x="0px" y="0px"
	 viewBox="0 0 452.3 318.9" style="enable-background:new 0 0 452.3 318.9;" xml:space="preserve">
<path d="M405,94.9c-5,0-9,4-9,9v53.4h-18.3v-45.1c0-5-4-9-9-9H327l-7.8-25.9c-1.1-3.8-4.6-6.4-8.6-6.4H247V48h40c5,0,9-4,9-9V9
	c0-5-4-9-9-9h-129c-5,0-9,4-9,9v30c0,5,4,9,9,9h40v22.8h-92.7c-3.3,0-6.3,1.8-7.9,4.7l-15,27.6H47.2c-5,0-9,4-9,9v45.1H18V92.9
	c0-5-4-9-9-9s-9,4-9,9v186c0,5,4,9,9,9s9-4,9-9v-64.3h20.2v47.6c0,5,4,9,9,9h74.9l34.3,44.2c1.7,2.2,4.3,3.5,7.1,3.5h205.2
	c5,0,9-4,9-9v-95.3H396V268c0,5,4,9,9,9c26,0,47.2-21.2,47.2-47.2v-87.7C452.3,116.1,431.1,94.9,405,94.9z M18,196.6v-21.3h20.2
	v21.3H18z M167.1,18h111v12h-111V18z M216.1,48H229v22.8h-12.9V48z M56.2,121.2h6.4v132.1h-6.4V121.2z M133.7,256.7
	c-1.7-2.2-4.3-3.5-7.1-3.5h-46V121.2h7.2c3.3,0,6.3-1.8,7.9-4.7l15-27.6h193.1l7.8,25.9c1.1,3.8,4.6,6.4,8.6,6.4h16.2v179.8H167.9
	L133.7,256.7z M359.7,300.9h-5.3V121.2h5.3V300.9z M377.7,196.6v-21.3H396v21.3H377.7z M434.3,229.8c0,13-8.5,24-20.2,27.8V114.3
	c11.7,3.8,20.2,14.8,20.2,27.8V229.8z"/>
</svg>
