<?xml version="1.0" encoding="utf-8"?>
<!-- Generator: Adobe Illustrator 22.1.0, SVG Export Plug-In . SVG Version: 6.00 Build 0)  -->
<svg version="1.1" id="Layer_1" xmlns="http://www.w3.org/2000/svg" xmlns:xlink="http://www.w3.org/1999/xlink" x="0px" y="0px"
	 viewBox="0 0 492 522.5" style="enable-background:new 0 0 492 522.5;" xml:space="preserve">
<style type="text/css">
	.st0{stroke:#000000;stroke-width:10;stroke-miterlimit:10;}
</style>
<g>
	<g>
		<path class="st0" d="M485.2,143.9L354.7,8.3c-1.9-1.9-4.4-3-7.1-3H153.2c-21.8,0-39.5,17.7-39.5,39.4v137.8H35
			c-16.3,0-29.5,13.2-29.5,29.5v147.7c0,16.3,13.2,29.5,29.5,29.5h78.8v88.6c0,21.7,17.7,39.4,39.5,39.4h295.2
			c21.8,0,39.5-17.7,39.5-39.4V150.6C487.9,148.1,486.9,145.6,485.2,143.9z M350.1,31.9l107.1,111.3H350.1V31.9z M35,369.5
			c-5.4,0-9.8-4.4-9.8-9.8V211.9c0-5.4,4.4-9.8,9.8-9.8h265.9c5.4,0,9.8,4.4,9.8,9.8v147.7c0,5.4-4.4,9.8-9.8,9.8H35V369.5z
			 M468.2,477.9c0,10.8-8.9,19.7-19.8,19.7H153.2c-10.9,0-19.8-8.8-19.8-19.7v-88.6h167.4c16.3,0,29.5-13.2,29.5-29.5V211.9
			c0-16.3-13.2-29.5-29.5-29.5H133.5V44.7c0-10.9,8.9-19.8,19.8-19.8h177.2v128c0,5.4,4.4,9.8,9.8,9.8h128L468.2,477.9L468.2,477.9z
			"/>
	</g>
</g>
<g>
	<g>
		<path class="st0" d="M123.2,255.1c-3.3-4.3-7.3-7-12.2-8.3c-3.2-0.8-9.9-1.3-20.3-1.3H63.3v84.6h17.1v-31.9h11.1
			c7.7,0,13.6-0.4,17.7-1.2c3-0.7,6-2,8.9-4s5.3-4.8,7.2-8.3s2.8-7.9,2.8-13.1C128.1,264.9,126.5,259.4,123.2,255.1z M108.6,278.5
			c-1.3,1.9-3.1,3.3-5.3,4.2s-6.8,1.3-13.5,1.3h-9.3v-24h8.3c6.2,0,10.3,0.2,12.3,0.6c2.8,0.5,5.1,1.8,6.9,3.8s2.7,4.5,2.7,7.6
			C110.5,274.4,109.8,276.5,108.6,278.5z"/>
	</g>
</g>
<g>
	<g>
		<path class="st0" d="M210.2,268.8c-1.8-5.4-4.5-10-8.1-13.7s-7.8-6.3-12.8-7.8c-3.7-1.1-9.1-1.6-16.1-1.6H142v84.6h32.1
			c6.3,0,11.3-0.6,15.1-1.8c5-1.6,9-3.9,12-6.8c3.9-3.8,6.9-8.8,9.1-14.9c1.7-5,2.6-11,2.6-18C213,280.8,212,274.1,210.2,268.8z
			 M193.6,303.5c-1.2,3.8-2.6,6.5-4.5,8.2c-1.8,1.7-4.1,2.8-6.9,3.5c-2.1,0.5-5.6,0.8-10.3,0.8h-12.8l0,0v-56h7.7
			c7,0,11.6,0.3,14,0.8c3.2,0.7,5.8,2,7.9,4c2.1,2,3.7,4.7,4.8,8.2c1.2,3.5,1.7,8.5,1.7,15.1C195.3,294.5,194.7,299.6,193.6,303.5z"
			/>
	</g>
</g>
<g>
	<g>
		<polygon class="st0" points="285.5,260 285.5,245.6 227.5,245.6 227.5,330.1 244.6,330.1 244.6,294.3 279.9,294.3 279.9,280 
			244.6,280 244.6,260 		"/>
	</g>
</g>
</svg>
