<svg xmlns="http://www.w3.org/2000/svg" width="75" height="75" viewBox="0 0 75 75">
  <defs>
    <style>
      .cls-1 {
        fill: #848484;
        fill-rule: evenodd;
      }
    </style>
  </defs>
  <path class="cls-1" d="M1132.69,3210.81a7.351,7.351,0,0,0-8.36-1.43l-17.91-17.89a7.337,7.337,0,0,0-11.81-8.35l-10.39,10.38a7.34,7.34,0,0,0,8.36,11.81l3.76,3.75-31.19,31.16a7.343,7.343,0,0,0,10.39,10.38l31.18-31.16,3.76,3.76a7.342,7.342,0,0,0,11.82,8.35l10.39-10.38A7.351,7.351,0,0,0,1132.69,3210.81Zm-41.55-10.37a2.447,2.447,0,0,1-3.46-3.46l10.39-10.38a2.447,2.447,0,0,1,3.46,3.46Zm-19.07,46.72a2.447,2.447,0,0,1-3.46-3.46l31.19-31.16,3.46,3.46Zm24.27-44.99,1.73-1.73,5.19-5.19,17.31,17.29-6.92,6.92Zm32.89,15.56-10.39,10.38a2.447,2.447,0,0,1-3.46-3.46l10.38-10.38A2.45,2.45,0,0,1,1129.23,3217.73Zm1.43,23.59h-19.59a7.351,7.351,0,0,0-7.34,7.34v4.89a2.448,2.448,0,0,0,2.45,2.45h29.37a2.454,2.454,0,0,0,2.45-2.45v-4.89A7.351,7.351,0,0,0,1130.66,3241.32Zm2.44,9.79h-24.48v-2.45a2.445,2.445,0,0,1,2.45-2.44h19.59a2.437,2.437,0,0,1,2.44,2.44v2.45h0Z" transform="translate(-1063 -3181)"/>
</svg>
