<svg xmlns="http://www.w3.org/2000/svg" width="105" height="69" viewBox="0 0 105 69">
  <defs>
    <style>
      .cls-1 {
        fill: #848484;
        fill-rule: evenodd;
      }
    </style>
  </defs>
  <path id="Forma_1" data-name="Forma 1" class="cls-1" d="M590.492,3206.03c-0.072-.08-0.13-0.16-0.214-0.24l-3.679-3.57c3.051-.69,6.337-3.26,6.337-5.89,0-3.07-4.24-4.16-7.86-4.16-3.784,0-4.223,2.6-4.269,4.44l-9.493-9.19a13.41,13.41,0,0,0-8.321-3.42H526.005a13.409,13.409,0,0,0-8.32,3.42l-9.491,9.19c-0.049-1.84-.488-4.44-4.269-4.44-3.623,0-7.862,1.09-7.862,4.16,0,2.63,3.288,5.2,6.339,5.89l-3.679,3.57c-0.084.08-.142,0.16-0.215,0.24A20.73,20.73,0,0,0,492,3220.22v13.51a12.371,12.371,0,0,0,3.368,8.48v5.23a5.642,5.642,0,0,0,5.7,5.57h6.887a5.639,5.639,0,0,0,5.694-5.57v-1.34h61.707v1.34a5.639,5.639,0,0,0,5.7,5.57h6.885a5.638,5.638,0,0,0,5.7-5.57v-5.23a12.363,12.363,0,0,0,3.369-8.48v-13.51A20.719,20.719,0,0,0,590.492,3206.03Zm-69.321-14.52a9.461,9.461,0,0,1,4.834-1.97H563a9.458,9.458,0,0,1,4.833,1.97l12.447,12.11H508.726Zm-24.9,26.66a5.913,5.913,0,0,1,5.794-6.02c3.2,0,13.655,6.16,13.655,9.49s-10.455,2.56-13.655,2.56A5.915,5.915,0,0,1,496.271,3218.17Zm17.377,22.01H511.44l-6.546.01a12.3,12.3,0,0,1-4-1.95,5.49,5.49,0,0,1-1.084-1.1,4.22,4.22,0,0,1-.609-1.11,5.1,5.1,0,0,1,.868-4.44h11.173l7.449,8.59h-5.038Zm46.918,0H528.434a6.084,6.084,0,0,1-6.069-6.09h44.27A6.084,6.084,0,0,1,560.566,3240.18Zm1.41-10.24H527.025c-3.644,0-6.6-4.51-6.6-10.08h48.153C568.577,3225.43,565.618,3229.94,561.976,3229.94Zm27.829,6.09a4.259,4.259,0,0,1-.611,1.11,5.649,5.649,0,0,1-1.084,1.11,12.276,12.276,0,0,1-4,1.94l-6.546-.01h-7.247l7.452-8.59h11.171A5.107,5.107,0,0,1,589.8,3236.03Zm-2.871-11.83c-3.2,0-13.653.76-13.653-2.56s10.455-9.49,13.653-9.49A6.03,6.03,0,0,1,586.934,3224.2Z" transform="translate(-492 -3184)"/>
</svg>
