<?xml version="1.0" encoding="utf-8"?>
<!-- Generator: Adobe Illustrator 22.1.0, SVG Export Plug-In . SVG Version: 6.00 Build 0)  -->
<svg version="1.1" id="Слой_1" xmlns="http://www.w3.org/2000/svg" xmlns:xlink="http://www.w3.org/1999/xlink" x="0px" y="0px"
	 viewBox="0 0 498 474.4" style="enable-background:new 0 0 498 474.4; fill: #848484;
        fill-rule: evenodd;" xml:space="preserve">
<g>
	<path d="M380.3,75c0.6,0,1.2,0,1.8-0.1c8.2,0.3,14.8,7.1,14.9,15.3c0,5.8,4.7,10.5,10.5,10.5c5.8,0,10.5-4.7,10.5-10.5
		c0-16.5-10.8-30.6-26.6-35v-5.7c0-5.8-4.7-10.5-10.5-10.5c-5.8,0-10.5,4.7-10.5,10.5v6.2c-16.5,5.4-27.1,21.9-24.8,39.3
		c2.4,18,17.8,31.6,36,31.6c8.5,0,15.3,6.9,15.3,15.3c0,8.5-6.9,15.3-15.3,15.3s-15.3-6.9-15.3-15.3c0-5.8-4.7-10.5-10.5-10.5
		s-10.5,4.7-10.5,10.5c0,15.7,10.2,29.7,25.1,34.5v6.9c0,5.8,4.7,10.5,10.5,10.5c5.8,0,10.5-4.7,10.5-10.5v-6.4
		c17.1-4.7,28.3-21.1,26.4-38.9c-2-18.5-17.5-32.4-36.1-32.4c0,0,0,0,0,0c-8.3,0-15-6.5-15.3-14.7C366,82.6,372.1,75.7,380.3,75z"/>
	<path d="M382.1,0c-47.9,0-91.3,30.1-108.5,75H77.1c-5.6,0-10.4,5-10.5,10.8l-1.9,277.7h-54c-6,0-10.7,4.4-10.7,10.1v35.6
		c0.1,34.1,26.2,62.1,59.9,64.8v0.3h251.6v-0.1c0.5,0,1,0.1,1.6,0.1h0.2c35.9-0.1,65.1-29.3,65.1-65.2V232c1.2,0,2.5,0.1,3.7,0.1
		C446,232,498,180,498,116C498,52,446,0,382.1,0z M265.7,366.4c-1.8-1.8-4.4-2.9-6.9-2.9c-0.1,0-0.2,0-0.3,0H85.7L87.5,96h180.4
		c-1.1,6.5-1.7,13.1-1.7,19.7c0,14.9,2.8,29.4,8.4,43.2h-71.7c-5.8,0-10.5,4.7-10.5,10.5s4.7,10.5,10.5,10.5h82.7
		c16.4,25.2,42.4,43.1,71.8,49.6v179.7c0,24.4-19.8,44.2-44.2,44.3h-0.1c-24.4,0-44.4-20-44.5-44.4l0-35.3
		C268.7,371,267.6,368.3,265.7,366.4z M65.4,455.9l0-2.5c-24.4,0-44.3-19.9-44.4-44.3v-24.6h226.6V409c0,16.4,6.4,32.4,17.5,44.4
		H65.4V455.9L65.4,455.9z M382.1,211.1c-25.4,0-49.2-9.9-67.1-27.8c-17.9-17.9-27.8-41.8-27.8-67.1c0-52.3,42.6-94.9,94.9-94.9
		c52.3,0,94.9,42.6,94.9,94.9C477,168.4,434.4,211,382.1,211.1z"/>
	<path d="M151.6,212c-15.5,0-28.1,12.2-28.1,27.3c0,15,12.6,27.3,28.1,27.3c15.5,0,28.1-12.2,28.1-27.3
		C179.7,224.2,167.1,212,151.6,212z M158.7,239.3c0,3.5-3.2,6.3-7.1,6.3c-3.9,0-7.1-2.8-7.1-6.3c0-3.5,3.2-6.3,7.1-6.3
		C155.5,233,158.7,235.8,158.7,239.3z"/>
	<path d="M202.9,249.7h106.5c5.8,0,10.5-4.7,10.5-10.5s-4.7-10.5-10.5-10.5H202.9c-5.8,0-10.5,4.7-10.5,10.5
		S197.1,249.7,202.9,249.7z"/>
	<path d="M151.6,142.6c-15.5,0-28.1,12.2-28.1,27.3c0,15,12.6,27.3,28.1,27.3c15.5,0,28.1-12.2,28.1-27.3
		C179.7,154.8,167.1,142.6,151.6,142.6z M158.7,169.8c0,3.4-3,6.2-6.8,6.3h-0.3c-3.9,0-7.1-2.8-7.1-6.3c0-3.5,3.2-6.3,7.1-6.3
		C155.5,163.6,158.7,166.4,158.7,169.8z"/>
	<path d="M151.6,281.4c-15.5,0-28.1,12.2-28.1,27.3s12.6,27.3,28.1,27.3c15.5,0,28.1-12.2,28.1-27.3S167.1,281.4,151.6,281.4z
		 M158.7,308.7c0,3.5-3.2,6.3-7.1,6.3c-3.9,0-7.1-2.8-7.1-6.3s3.2-6.3,7.1-6.3C155.5,302.4,158.7,305.2,158.7,308.7z"/>
	<path d="M319.9,309.1c0-5.8-4.7-10.5-10.5-10.5H202.9c-5.8,0-10.5,4.7-10.5,10.5s4.7,10.5,10.5,10.5h106.5
		C315.2,319.6,319.9,314.9,319.9,309.1z"/>
</g>
</svg>
