<?xml version="1.0" encoding="utf-8"?>
<!-- Generator: Adobe Illustrator 22.1.0, SVG Export Plug-In . SVG Version: 6.00 Build 0)  -->
<svg version="1.1" id="Capa_1" xmlns="http://www.w3.org/2000/svg" xmlns:xlink="http://www.w3.org/1999/xlink" x="0px" y="0px"
	 viewBox="0 0 408 445.7" style="enable-background:new 0 0 408 445.7; fill: #848484;
        fill-rule: evenodd;" xml:space="preserve">
<g>
	<g>
		<path d="M393.6,264.2l-6.8-6.4c-0.1-0.2-0.1-0.5-0.2-0.7L359.1,193c-5.6-12.9-18.3-21.3-32.4-21.3h-97.4
			c28.3-60.1,2.5-131.9-57.6-160.2S39.8,9,11.5,69.1S9,201,69.1,229.3c2.6,1.2,5.2,2.4,7.9,3.4l-10.3,23.9l-10.2,8.8
			c-10.5,8.9-16.5,22-16.4,35.8v109.5c0,19.1,15.2,35,34.3,35h20.5c19.1,0,35.1-15.9,35.1-35v-13h188v13c0.1,19.3,15.7,34.9,35,35
			h20.5c19.1,0,34.5-15.9,34.5-35V298.4C408.2,285.5,402.9,273.1,393.6,264.2z M326.7,191.7c6.1-0.1,11.6,3.4,14,9l21.5,50h-12.3
			c-5.5-30.2-34.5-50.2-64.7-44.7c-22.8,4.2-40.6,22-44.7,44.7H90.9l5.4-12.5c8,1.7,16,2.6,24.1,2.6c38.3,0.1,74.4-18.2,97-49.1
			H326.7z M329.4,250.7H261c4.3-14,18-25.6,34.2-25.6S325.1,236.7,329.4,250.7z M20,120.4C20,65,64.9,20,120.4,20
			s100.4,44.9,100.4,100.4s-45,100.4-100.4,100.4C65,220.7,20.1,175.8,20,120.4z M110.2,410.7c-0.2,8.3-6.9,14.9-15.1,15H74.6
			c-8.1,0-14.3-7-14.3-15V394c4.4,2.4,9.3,3.6,14.3,3.7h35.6V410.7z M388.2,410.7c0,8-6.4,15-14.5,15h-20.5c-8.2-0.2-14.8-6.8-15-15
			v-13h35.5c5.1-0.1,10-1.4,14.5-3.7V410.7z M388.3,362.6c0,8.1-6.4,15.1-14.5,15.1H74.5c-8.1,0-14.3-7-14.3-15.1v-61.4
			c-0.1-8,3.3-15.5,9.4-20.8l11.1-9.7h291.1l8.1,7.9c5.4,5.2,8.4,12.3,8.4,19.8V362.6z"/>
	</g>
</g>
<g>
	<g>
		<path d="M145.2,297.7h-59c-5.5,0-10,4.5-10,10v40c0,5.5,4.5,10,10,10h59c5.5,0,10-4.5,10-10v-40
			C155.2,302.2,150.7,297.7,145.2,297.7z M135.2,337.7h-39v-20h39V337.7z"/>
	</g>
</g>
<g>
	<g>
		<path d="M362.2,297.7h-59c-5.5,0-10,4.5-10,10v40c0,5.5,4.5,10,10,10h59c5.5,0,10-4.5,10-10v-40
			C372.2,302.2,367.7,297.7,362.2,297.7z M352.2,337.7h-39v-20h39V337.7z"/>
	</g>
</g>
<g>
	<g>
		<path d="M261.7,336.7h-75.2c-5.5,0-10,4.5-10,10s4.5,10,10,10h75.2c5.5,0,10-4.5,10-10S267.2,336.7,261.7,336.7z"/>
	</g>
</g>
<g>
	<g>
		<path d="M261.7,305.7h-75.2c-5.5,0-10,4.5-10,10s4.5,10,10,10h75.2c5.5,0,10-4.5,10-10S267.2,305.7,261.7,305.7z"/>
	</g>
</g>
<polygon points="160.2,83.7 114.4,129.5 87.9,103.1 73.8,117.2 100.2,143.7 114.4,157.8 128.5,143.7 174.4,97.8 "/>
</svg>
