<svg xmlns="http://www.w3.org/2000/svg" width="88" height="82" viewBox="0 0 88 82">
  <defs>
    <style>
      .cls-1 {
        fill: #848484;
        fill-rule: evenodd;
      }
    </style>
  </defs>
  <path id="Forma_1" data-name="Forma 1" class="cls-1" d="M1416.26,3230.51l-6.99-3.15-1.99-3.2a26.6,26.6,0,0,0,12.51-22.54v-13.16a2.082,2.082,0,0,0-1.11-1.77l-17.94-9.47a1.985,1.985,0,0,0-1.92.02l-17.38,9.45a1.942,1.942,0,0,0-1.01,1.77v13.42a26.662,26.662,0,0,0,2.34,11.08h-14.55a10.149,10.149,0,0,0-8.01,3.93l-7.93,10.31-13.33,3.61a8.028,8.028,0,0,0-5.95,7.71v5.05a8.15,8.15,0,0,0,8.11,8.06h0.97a10.182,10.182,0,0,0,19.58,0h29.67a10.184,10.184,0,0,0,19.58,0h1.98a8.124,8.124,0,0,0,8.11-8.06v-5.79A8.054,8.054,0,0,0,1416.26,3230.51Zm-31.79-40.87,15.4-8.39,15.88,8.41v11.96a22.753,22.753,0,0,1-14.05,20.94h-0.04l-1.93.82-1.58-.7a22.722,22.722,0,0,1-13.68-20.82v-12.22h0Zm-32.6,65.29a6.07,6.07,0,1,1,6.12-6.07A6.082,6.082,0,0,1,1351.87,3254.93Zm49.25,0a6.07,6.07,0,1,1,6.11-6.07A6.09,6.09,0,0,1,1401.12,3254.93Zm15.86-11.38h-0.02a4.1,4.1,0,0,1-4.07,4.05h-1.7a10.164,10.164,0,0,0-20.14,0h-29.11a10.164,10.164,0,0,0-20.14,0h-0.69a4.1,4.1,0,0,1-4.07-4.05v-5.05a4.027,4.027,0,0,1,2.98-3.84l13.97-3.79a2.1,2.1,0,0,0,1.09-.72l8.36-10.86a6.069,6.069,0,0,1,4.8-2.34h16.83a27.353,27.353,0,0,0,11.47,9.41l2.42,1.04a2.046,2.046,0,0,0,1.61,0l2.73-1.16c0.14-.06.28-0.12,0.4-0.18l2.49,3.95a1.868,1.868,0,0,0,.86.76l7.55,3.39a4.032,4.032,0,0,1,2.38,3.62v5.77h0Zm-7.16-46.34a2.059,2.059,0,0,0-2.85-.32l-0.02.02-9.44,7.64-3.43-3.99a2.036,2.036,0,0,0-2.85-.24,1.982,1.982,0,0,0-.24,2.82l0.02,0.02,4.7,5.47a0.276,0.276,0,0,0,.06.08,0.3,0.3,0,0,0,.08.08l0.08,0.08c0.02,0.02.06,0.04,0.08,0.06a0.437,0.437,0,0,0,.1.06,0.276,0.276,0,0,1,.08.06,1.091,1.091,0,0,0,.11.06,0.152,0.152,0,0,0,.08.04,0.284,0.284,0,0,0,.12.04c0.02,0.02.06,0.02,0.08,0.04,0.04,0.02.08,0.02,0.12,0.04,0.02,0,.06.02,0.08,0.02,0.04,0,.08.02,0.12,0.02,0.02,0,.06.02,0.08,0.02h0.45c0.04,0,.1-0.02.14-0.02a0.073,0.073,0,0,0,.06-0.02c0.04,0,.08-0.02.12-0.02,0.02,0,.04-0.02.06-0.02a0.211,0.211,0,0,0,.1-0.04,0.454,0.454,0,0,1,.08-0.02c0.02-.02.06-0.02,0.08-0.04s0.06-.02.08-0.04,0.06-.02.08-0.04a0.152,0.152,0,0,1,.08-0.04,0.293,0.293,0,0,1,.08-0.04,0.231,0.231,0,0,1,.09-0.06c0.02-.02.04-0.02,0.06-0.04l10.96-8.85A2.035,2.035,0,0,0,1409.82,3197.21Z" transform="translate(-1333 -3177)"/>
</svg>
