<svg xmlns="http://www.w3.org/2000/svg" width="120" height="82" viewBox="0 0 120 82">
  <defs>
    <style>
      .cls-1 {
        fill: #848484;
        fill-rule: evenodd;
      }
    </style>
  </defs>
  <path class="cls-1" d="M1415.11,3502.96a11.114,11.114,0,0,0-11.1,11.02,10.849,10.849,0,0,0,3.28,7.79,11.093,11.093,0,0,0,7.82,3.23A11.021,11.021,0,0,0,1415.11,3502.96Zm0,17.14a6.126,6.126,0,1,1,0-12.25A6.126,6.126,0,0,1,1415.11,3520.1Zm2.83-53.86a2.4,2.4,0,0,0-1.64-.63h-12.53a2.454,2.454,0,0,0-2.45,2.45v20.08a2.454,2.454,0,0,0,2.45,2.45h19.89a2.452,2.452,0,0,0,2.44-2.45v-13.45a2.471,2.471,0,0,0-.8-1.81Zm3.27,19.45h-15v-15.21h9.14l5.86,5.29v9.92Zm-65.77,17.27a11.114,11.114,0,0,0-11.1,11.02,10.849,10.849,0,0,0,3.28,7.79,11.093,11.093,0,0,0,7.82,3.23A11.021,11.021,0,0,0,1355.44,3502.96Zm0,17.14a6.126,6.126,0,1,1,0-12.25A6.126,6.126,0,0,1,1355.44,3520.1Zm-16.3-14.13h-4.91v-6.52a2.445,2.445,0,1,0-4.89,0v8.97a2.458,2.458,0,0,0,2.44,2.45h7.36A2.45,2.45,0,0,0,1339.14,3505.97Zm12.39-13.35a2.454,2.454,0,0,0-2.45-2.45h-29.64a2.45,2.45,0,0,0,0,4.9h29.64A2.441,2.441,0,0,0,1351.53,3492.62Zm-27.13-8.84,29.64,0.17a2.465,2.465,0,0,0,2.47-2.42,2.417,2.417,0,0,0-2.42-2.48l-29.64-.17h-0.02A2.45,2.45,0,0,0,1324.4,3483.78Zm4.99-11.12h29.64a2.45,2.45,0,0,0,0-4.9h-29.64A2.45,2.45,0,0,0,1329.39,3472.66Zm106.71-3.31h0l-17.5-14.52a2.389,2.389,0,0,0-1.56-.56h-20.58v-8.82a2.452,2.452,0,0,0-2.44-2.45h-62.24a2.452,2.452,0,0,0-2.44,2.45v17.93a2.445,2.445,0,1,0,4.89,0V3447.9h57.37v58.07h-20.04a2.45,2.45,0,0,0,0,4.9h29.84a2.45,2.45,0,0,0,0-4.9h-4.91v-46.81h19.69l15.93,13.23-0.17,33.53h-2.54a2.45,2.45,0,0,0,0,4.9h4.96a2.435,2.435,0,0,0,2.44-2.43l0.2-37.13A2.592,2.592,0,0,0,1436.1,3469.35Z" transform="translate(-1317 -3443)"/>
</svg>
