<svg xmlns="http://www.w3.org/2000/svg" width="66" height="81.03" viewBox="0 0 66 81.03">
  <defs>
    <style>
      .cls-1 {
        fill: #848484;
        fill-rule: evenodd;
      }
    </style>
  </defs>
  <path id="Forma_1" data-name="Forma 1" class="cls-1" d="M800,3205.82h33v5.56H800v-5.56Zm0,11.12v5.56h22.7a19.389,19.389,0,0,1,5.883-5.56H800Zm0,11.12h16.5v5.56H800v-5.56Zm38.5-2.81v16.68a8.111,8.111,0,0,0,5.5-2.17v-12.34A8.158,8.158,0,0,0,838.5,3225.25Zm0-36.13h-7.641a8.184,8.184,0,0,0-3.824-2.46,3.8,3.8,0,0,1-2.605-2.63,8.229,8.229,0,0,0-15.86,0,3.807,3.807,0,0,1-2.609,2.63,8.185,8.185,0,0,0-3.826,2.46H794.5a5.53,5.53,0,0,0-5.5,5.56v50.03a5.53,5.53,0,0,0,5.5,5.56h17.8l5.467-5.56H794.5v-50.03H800v5.56h33v-5.56h5.5v19.46a19.219,19.219,0,0,1,5.5.81v-20.27A5.53,5.53,0,0,0,838.5,3189.12Zm-21.965,0a2.78,2.78,0,1,1,2.75-2.78A2.768,2.768,0,0,1,816.535,3189.12Zm21.965,27.79a16.693,16.693,0,0,0-14.216,25.12l-10.1,10.27a2.8,2.8,0,0,0,.006,3.93l1.947,1.96a2.729,2.729,0,0,0,3.888-.01l10.081-10.25a16.216,16.216,0,0,0,8.391,2.34A16.681,16.681,0,0,0,838.5,3216.91Zm0,27.8a11.121,11.121,0,1,1,11-11.12A11.061,11.061,0,0,1,838.5,3244.71Z" transform="translate(-789 -3178)"/>
</svg>
