<?xml version="1.0" encoding="utf-8"?>
<!-- Generator: Adobe Illustrator 22.1.0, SVG Export Plug-In . SVG Version: 6.00 Build 0)  -->
<svg version="1.1" id="Слой_1" xmlns="http://www.w3.org/2000/svg" xmlns:xlink="http://www.w3.org/1999/xlink" x="0px" y="0px"
	 viewBox="0 0 486 369.3" style="enable-background:new 0 0 486 369.3;   fill: #848484;
        fill-rule: evenodd;" xml:space="preserve">
<path d="M478,154.8h-51.2v-16.6c0-4.4-3.2-8.4-7.7-8.4h-42.3V73.3c0-4.4-3.2-8.4-7.7-8.4h-44.3V8.4c0-4.4-3.2-8.4-7.7-8.4H211.4
	c-4.6,0.1-8.2,3.8-8.3,8.4v56.6h-45.6c-4.6,0.1-8.2,3.8-8.3,8.4v56.6h-47.6c-4.6,0.1-8.2,3.8-8.3,8.4v16.6h-4V94.3
	c0-4.5-3.5-8.2-8-8.4h-2v-20c0-4.4-3.6-8-8-8h-29c-4.4,0-8,3.6-8,8v20h-1c-4.5,0.2-8,3.9-8,8.4v60.6H8c-2.6,0-5,1.3-6.5,3.4
	c-1.5,2.1-1.9,4.9-1,7.3l37.3,104.8c-6.4,2.1-13.1,3-19.8,2.9c-4.4,0-8,3.6-8,8c0,4.4,3.6,8,8,8c20.4,0,31.1-5.8,40.5-11
	c8.9-4.8,16.5-9,32.8-9s24,4.2,32.9,9c9.4,5.1,20.1,11,40.5,11c20.4,0,31.1-5.8,40.5-11c8.9-4.8,16.5-9,32.8-9c16.3,0,24,4.2,32.8,9
	c9.4,5.1,20.1,11,40.5,11s31.1-5.8,40.5-11c8.9-4.8,16.5-9,32.8-9c16.3,0,24,4.2,32.8,9c9.4,5.1,20.1,11,40.5,11c4.4,0,8-3.6,8-8
	c0-4.4-3.6-8-8-8c-6.5,0.1-12.9-0.8-19.1-2.7l46.4-104.5c1.1-2.5,0.9-5.4-0.6-7.6C483.2,156.3,480.7,154.9,478,154.8z M410.8,154.8
	h-23c-2.2,0-4.4,0.9-5.9,2.6l-34.6,37.4h-26.5v-49h89.9V154.8z M304.9,145.9v49H215v-49H304.9z M360.9,129.9H271v-49h89.9V129.9z
	 M219,16h89.9v49H219V16z M165.1,80.9H255v49h-89.9V80.9z M109.1,145.9H199v49h-29.3l-31.6-37.1c-1.5-1.8-3.8-2.8-6.1-2.8h-23V145.9
	z M50.2,73.9h13v12h-13V73.9z M41.2,101.9h32v52.9h-32V101.9z M424.4,263.8c-9.2-5-19.9-10.5-39.7-10.5c-20.4,0-31.1,5.8-40.5,11
	c-8.9,4.8-16.5,9-32.8,9c-16.3,0-24-4.2-32.8-9c-9.4-5.1-20.1-11-40.5-11c-20.4,0-31.1,5.8-40.5,11c-8.9,4.8-16.5,9-32.8,9
	s-24-4.2-32.8-9c-9.4-5.1-20.1-11-40.5-11c-19.4,0-30,5.2-39.1,10.1l-32.9-92.7h109.1L160,208c1.5,1.8,3.7,2.8,6.1,2.8h184.8
	c2.2,0,4.4-0.9,5.9-2.6l34.6-37.4h74.4L424.4,263.8z"/>
<path d="M18,329.3c20.4,0,31.1-5.8,40.5-11c8.9-4.8,16.5-9,32.8-9s24,4.2,32.9,9c9.4,5.1,20.1,11,40.5,11c20.4,0,31.1-5.8,40.5-11
	c8.9-4.8,16.5-9,32.8-9c16.3,0,24,4.2,32.8,9c9.4,5.1,20.1,11,40.5,11s31.1-5.8,40.5-11c8.9-4.8,16.5-9,32.8-9c16.3,0,24,4.2,32.8,9
	c9.4,5.1,20.1,11,40.5,11c4.4,0,8-3.6,8-8c0-4.4-3.6-8-8-8c-16.3,0-24-4.2-32.8-9c-9.4-5.1-20.1-11-40.5-11s-31.1,5.8-40.5,11
	c-8.9,4.8-16.5,9-32.8,9c-16.3,0-24-4.2-32.8-9c-9.4-5.1-20.1-11-40.5-11s-31.1,5.8-40.5,11c-8.9,4.8-16.5,9-32.8,9s-24-4.2-32.9-9
	c-9.4-5.1-20.1-11-40.5-11c-20.4,0-31.1,5.8-40.5,11c-8.9,4.8-16.5,9-32.9,9c-4.4,0-8,3.6-8,8C10,325.7,13.6,329.3,18,329.3z"/>
<path d="M18,369.3c20.4,0,31.1-5.8,40.5-11c8.9-4.8,16.5-9,32.8-9s24,4.2,32.9,9c9.4,5.1,20.1,11,40.5,11c20.4,0,31.1-5.8,40.5-11
	c8.9-4.8,16.5-9,32.8-9c16.3,0,24,4.2,32.8,9c9.4,5.1,20.1,11,40.5,11s31.1-5.8,40.5-11c8.9-4.8,16.5-9,32.8-9c16.3,0,24,4.2,32.8,9
	c9.4,5.1,20.1,11,40.5,11c4.4,0,8-3.6,8-8c0-4.4-3.6-8-8-8c-16.3,0-24-4.2-32.8-9c-9.4-5.1-20.1-11-40.5-11s-31.1,5.8-40.5,11
	c-8.9,4.8-16.5,9-32.8,9c-16.3,0-24-4.2-32.8-9c-9.4-5.1-20.1-11-40.5-11s-31.1,5.8-40.5,11c-8.9,4.8-16.5,9-32.8,9s-24-4.2-32.9-9
	c-9.4-5.1-20.1-11-40.5-11c-20.4,0-31.1,5.8-40.5,11c-8.9,4.8-16.5,9-32.9,9c-4.4,0-8,3.6-8,8S13.6,369.3,18,369.3z"/>
</svg>
