<svg xmlns="http://www.w3.org/2000/svg" width="81" height="80.94" viewBox="0 0 81 80.94">
  <defs>
    <style>
      .cls-1 {
        fill: #848484;
        fill-rule: evenodd;
      }
    </style>
  </defs>
  <path id="Forma_1" data-name="Forma 1" class="cls-1" d="M514.861,3769.73a2.375,2.375,0,1,1-2.373,2.38A2.379,2.379,0,0,1,514.861,3769.73Zm67.055-37.81-26.85-26.83a7.121,7.121,0,0,0-10.069,0l-3.356,3.35a2.377,2.377,0,0,0,0,3.36l1.678,1.67-3.357,3.36-1.678-1.68a2.371,2.371,0,1,0-3.356,3.35l1.678,1.68-3.356,3.36-1.678-1.68a2.367,2.367,0,0,0-3.356,0l-13.426,13.42a2.366,2.366,0,0,0,0,3.35l6.713,6.71a2.348,2.348,0,0,0,1.678.69h5.73l0.983,0.99-13.36,13.35a11.856,11.856,0,1,0,10.069,10.06l13.359-13.35,0.983,0.98v5.73a2.382,2.382,0,0,0,.7,1.68l6.712,6.71a2.385,2.385,0,0,0,3.356,0l13.425-13.42a2.377,2.377,0,0,0,0-3.36l-1.678-1.67,3.356-3.36,1.678,1.68a2.371,2.371,0,0,0,3.357-3.35l-1.678-1.68,3.356-3.36,1.678,1.68a2.367,2.367,0,0,0,3.356,0l3.356-3.35A7.128,7.128,0,0,0,581.916,3731.92ZM519.9,3777.14a7.12,7.12,0,1,1,0-10.07A7.139,7.139,0,0,1,519.9,3777.14Zm4.866-11.57a11.366,11.366,0,0,0-1.51-1.85,12.007,12.007,0,0,0-1.847-1.51l11.846-11.84,3.356,3.36Zm25.27,1.57-4.339-4.33v-5.73a2.385,2.385,0,0,0-.7-1.68l-13.425-13.41a2.358,2.358,0,0,0-1.678-.7h-5.73l-4.339-4.34,10.068-10.06,1.678,1.68h0l26.85,26.83h0l1.677,1.68Zm10.069-16.77-23.494-23.48,3.356-3.35,23.494,23.48Zm6.712-6.71-23.493-23.48,3.356-3.35c1.306,1.3,22.188,22.17,23.494,23.48Zm11.747-5.03-1.678,1.68-1.678-1.68c-0.329-.33-27.769-27.75-28.528-28.51l1.678-1.68a2.385,2.385,0,0,1,3.356,0l26.85,26.84A2.364,2.364,0,0,1,578.559,3738.63Z" transform="translate(-503 -3703.03)"/>
</svg>
