<?xml version="1.0" encoding="utf-8"?>
<!-- Generator: Adobe Illustrator 22.1.0, SVG Export Plug-In . SVG Version: 6.00 Build 0)  -->
<svg version="1.1" id="Слой_1" xmlns="http://www.w3.org/2000/svg" xmlns:xlink="http://www.w3.org/1999/xlink" x="0px" y="0px"
	 viewBox="0 0 300.1 572" style="enable-background:new 0 0 300.1 572; fill: #848484;
        fill-rule: evenodd;" xml:space="preserve">
<path d="M193.7,430c-5.4-6.4-15-7.1-21.4-1.7l-7,6v-49.1c0-8.4-6.8-15.2-15.2-15.2s-15.2,6.8-15.2,15.2v49.1l-7-6
	c-6.4-5.4-16-4.7-21.4,1.7c-5.4,6.4-4.7,16,1.7,21.4l32.1,27.3c2.8,2.4,6.4,3.6,9.9,3.6s7-1.2,9.9-3.6l32.1-27.3
	C198.4,446,199.1,436.4,193.7,430z"/>
<path d="M269.2,212.4L199,153.8c4.4-8,7-17.2,7-27c0-25.6-17.3-47.2-40.7-53.8V15.2c0-8.4-6.8-15.2-15.2-15.2s-15.2,6.8-15.2,15.2
	v57.7c-23.5,6.6-40.8,28.2-40.8,53.8c0,9.8,2.5,19,7,27L31,212.4c-17.6,3-31,18.4-31,36.8v285.5C0,555.3,16.8,572,37.3,572h225.5
	c20.6,0,37.3-16.8,37.3-37.3V249.2C300.1,230.8,286.7,215.5,269.2,212.4z M128.6,242.3h42.9v36.1h-42.9V242.3z M79,211.9l43.6-36.4
	c8.1,4.6,17.5,7.3,27.5,7.3s19.4-2.6,27.5-7.3l43.6,36.4H79z M150.1,101.2c14.1,0,25.6,11.5,25.6,25.6s-11.5,25.6-25.6,25.6
	s-25.6-11.5-25.6-25.6S136,101.2,150.1,101.2z M269.7,534.7c0,3.8-3.1,6.9-6.9,6.9H37.3c-3.8,0-6.9-3.1-6.9-6.9V249.2
	c0-3.8,3.1-6.9,6.9-6.9h60.9v51.3c0,8.4,6.8,15.2,15.2,15.2h73.3c8.4,0,15.2-6.8,15.2-15.2v-51.3h60.9c3.8,0,6.9,3.1,6.9,6.9
	L269.7,534.7L269.7,534.7z"/>
</svg>
