<svg xmlns="http://www.w3.org/2000/svg" width="22.03" height="22" viewBox="0 0 22.03 22">
  <defs>
    <style>
      .cls-1 {
        fill: #f7c935;
        fill-rule: evenodd;
      }
    </style>
  </defs>
  <path id="Shape_1_копия_6" data-name="Shape 1 копия 6" class="cls-1" d="M1209.43,6895.62a23.376,23.376,0,0,0,7.81,6.08,12.116,12.116,0,0,0,4.36,1.29c0.11,0,.21.01,0.32,0.01a3.612,3.612,0,0,0,2.8-1.2,0.038,0.038,0,0,0,.02-0.02,10.724,10.724,0,0,1,.88-0.91c0.22-.21.44-0.42,0.65-0.64a2.19,2.19,0,0,0-.01-3.28l-2.75-2.74a2.262,2.262,0,0,0-1.62-.74,2.318,2.318,0,0,0-1.63.74l-1.64,1.63c-0.15-.09-0.31-0.17-0.45-0.24-0.19-.09-0.35-0.18-0.51-0.27a17.442,17.442,0,0,1-4.14-3.76,9.952,9.952,0,0,1-1.41-2.22c0.44-.39.84-0.8,1.23-1.19,0.14-.15.28-0.29,0.42-0.43a2.342,2.342,0,0,0,.76-1.64,2.3,2.3,0,0,0-.76-1.64l-1.37-1.36c-0.16-.16-0.31-0.31-0.46-0.47-0.31-.31-0.62-0.63-0.93-0.92a2.313,2.313,0,0,0-1.62-.7,2.372,2.372,0,0,0-1.63.7l-1.71,1.71a3.49,3.49,0,0,0-1.05,2.24,8.264,8.264,0,0,0,.64,3.65A21.1,21.1,0,0,0,1209.43,6895.62Zm-3.32-9.87a2.381,2.381,0,0,1,.73-1.55l1.7-1.7a1.259,1.259,0,0,1,.84-0.38,1.189,1.189,0,0,1,.83.39c0.31,0.28.59,0.58,0.91,0.9,0.15,0.15.31,0.31,0.47,0.48l1.37,1.36a1.055,1.055,0,0,1,0,1.7l-0.43.43c-0.42.43-.82,0.84-1.26,1.22l-0.03.03a0.864,0.864,0,0,0-.22,1.01,0.037,0.037,0,0,0,.01.03,10.454,10.454,0,0,0,1.61,2.61,18.443,18.443,0,0,0,4.41,4,6.08,6.08,0,0,0,.61.33c0.18,0.09.35,0.18,0.5,0.27a0.219,0.219,0,0,1,.05.03,0.962,0.962,0,0,0,.45.11,0.976,0.976,0,0,0,.68-0.31l1.71-1.7a1.217,1.217,0,0,1,.84-0.41,1.139,1.139,0,0,1,.81.41l2.77,2.74a1.1,1.1,0,0,1-.02,1.72c-0.19.21-.39,0.4-0.61,0.61a12.8,12.8,0,0,0-.95.99,2.555,2.555,0,0,1-1.97.83c-0.08,0-.16-0.01-0.24-0.01a11.123,11.123,0,0,1-3.95-1.18,22.307,22.307,0,0,1-7.43-5.79,20.476,20.476,0,0,1-3.61-5.99A7.131,7.131,0,0,1,1206.11,6885.75Z" transform="translate(-1205 -6881)"/>
</svg>
