<svg xmlns="http://www.w3.org/2000/svg" width="42" height="57.94" viewBox="0 0 42 57.94">
  <defs>
    <style>
      .cls-1 {
        fill: #f7c935;
        fill-rule: evenodd;
      }
    </style>
  </defs>
  <path id="Forma_1_копия_5" data-name="Forma 1 копия 5" class="cls-1" d="M805.976,6960c-11.6,0-20.977,9.76-20.977,21.82,0,6.28,3.017,11.97,5.987,17.21a91.286,91.286,0,0,0,13.011,18,2.709,2.709,0,0,0,4.006,0,83.784,83.784,0,0,0,11.644-15.2c3.535-5.94,7.353-12.8,7.353-20.01C826.953,6969.81,817.573,6960,805.976,6960Zm0,34.47a13.25,13.25,0,1,1,12.728-13.24A13,13,0,0,1,805.976,6994.47Z" transform="translate(-785 -6960)"/>
</svg>
