<?xml version="1.0" encoding="utf-8"?>
<!-- Generator: Adobe Illustrator 22.1.0, SVG Export Plug-In . SVG Version: 6.00 Build 0)  -->
<svg version="1.1" id="Слой_1" xmlns="http://www.w3.org/2000/svg" xmlns:xlink="http://www.w3.org/1999/xlink" x="0px" y="0px"
	 viewBox="0 0 43 30" style="enable-background:new 0 0 43 30;" xml:space="preserve">
<path id="Forma_1_копия_3" d="M14,29.5c0.6,0.6,1.6,0.6,2.2,0c0,0,0,0,0,0c0.6-0.6,0.6-1.5,0-2.1l-11-10.9h36.3
	c0.8,0,1.5-0.7,1.5-1.5c0,0,0,0,0,0c0-0.8-0.7-1.5-1.5-1.5c0,0,0,0,0,0H5.2l11-10.9C16.8,2,16.8,1,16.2,0.4c-0.6-0.6-1.5-0.6-2.1,0
	L0.5,13.9c-0.6,0.6-0.6,1.5,0,2.1c0,0,0,0,0,0L14,29.5z"/>
</svg>
