<?xml version="1.0" encoding="utf-8"?>
<!-- Generator: Adobe Illustrator 22.1.0, SVG Export Plug-In . SVG Version: 6.00 Build 0)  -->
<svg version="1.1" id="Слой_1" xmlns="http://www.w3.org/2000/svg" xmlns:xlink="http://www.w3.org/1999/xlink" x="0px" y="0px"
	 viewBox="0 0 43 30" style="enable-background:new 0 0 43 30;" xml:space="preserve">
<path id="Forma_1_копия_3" d="M42.5,16L42.5,16c0.6-0.6,0.6-1.5,0-2.1L28.9,0.4c-0.6-0.6-1.5-0.6-2.1,0c-0.6,0.6-0.6,1.6,0,2.2
	l11,10.9H1.5l0,0C0.8,13.5,0,14.2,0,15l0,0c0,0.8,0.7,1.5,1.5,1.5h36.3l-11,10.9c-0.6,0.6-0.6,1.5,0,2.1l0,0c0.6,0.6,1.6,0.6,2.2,0
	L42.5,16z"/>
</svg>
