<?xml version="1.0" encoding="utf-8"?>
<!-- Generator: Adobe Illustrator 22.1.0, SVG Export Plug-In . SVG Version: 6.00 Build 0)  -->
<svg version="1.1" id="Capa_1" xmlns="http://www.w3.org/2000/svg" xmlns:xlink="http://www.w3.org/1999/xlink" x="0px" y="0px"
	 viewBox="0 0 41 59" style="enable-background:new 0 0 41 59;" xml:space="preserve" fill="#f7c935">
<g>
	<path d="M20.5,30C18,30,16,32,16,34.5v6c0,2.5,2,4.5,4.5,4.5s4.5-2,4.5-4.5v-6C25,32,23,30,20.5,30z M20.5,42
		c-0.8,0-1.5-0.7-1.5-1.5v-6c0-0.8,0.7-1.5,1.5-1.5s1.5,0.7,1.5,1.5v6C22,41.3,21.3,42,20.5,42z"/>
	<path d="M32,21.5V10.7C32,4.8,26.8,0,20.5,0C14.2,0,9,4.8,9,10.7v10.8c-5.6,3.9-9,10.2-9,17C0,49.8,9.2,59,20.5,59S41,49.8,41,38.5
		C41,31.7,37.6,25.4,32,21.5z M20.5,56C10.9,56,3,48.1,3,38.5c0-6.1,3.2-11.9,8.5-15c0.9-0.6,1.8-0.9,2.8-1.4c0.1,0,0.1,0,0.2-0.1
		c0.1,0,0.2-0.1,0.4-0.1c0.1,0,0.2-0.1,0.3-0.1c0.1,0,0.2-0.1,0.4-0.1c0.1,0,0.3-0.1,0.5-0.1c0.2-0.1,0.4-0.1,0.5-0.2
		c0.1,0,0.2-0.1,0.3-0.1c0.1,0,0.3-0.1,0.4-0.1c0.2,0,0.3-0.1,0.5-0.1c0.2,0,0.3-0.1,0.5-0.1c0.2,0,0.3,0,0.6-0.1
		c0.2,0,0.5,0,0.7-0.1c0.3,0,0.5,0,0.8,0c0.5,0,1.1,0,1.6,0.1c0.2,0,0.2,0,0.3,0l0.1,0.1h0.1c0.3,0,0.5,0.1,0.8,0.1l0.2,0.1l0.1,0
		c0.1,0,0.2,0,0.5,0.1l0.2,0.1c0.2,0.1,0.3,0.1,0.5,0.2c0.2,0,0.3,0.1,0.5,0.1c0.3,0.1,0.6,0.2,0.7,0.3c0.1,0.1,0.2,0.1,0.4,0.1
		l0.2,0.1c1,0.4,1.9,0.8,2.8,1.4c5.3,3.3,8.5,8.9,8.5,15c0.1,4.6-1.6,9-4.9,12.3C29.6,54.1,25.2,56,20.5,56z M29,19.8
		c-0.4-0.2-0.8-0.4-1.1-0.5c-0.1,0-0.3-0.1-0.4-0.1c-0.1-0.1-0.3-0.1-0.4-0.2c-0.1,0-0.3-0.1-0.4-0.1c-0.1-0.1-0.3-0.1-0.5-0.2
		c-0.2-0.1-0.4-0.1-0.7-0.2c-0.2,0-0.4-0.1-0.6-0.1l-0.1,0c0,0-0.1,0-0.2,0c-0.1,0-0.2-0.1-0.3-0.1c0,0,0,0,0,0
		c-0.5-0.1-1-0.2-1.7-0.2l-0.3,0C21.6,18,21,18,20.4,18s-1.2,0-1.8,0.1l-0.5,0c-0.2,0-0.5,0.1-0.7,0.1c-0.3,0-0.6,0.1-0.8,0.1
		c-0.2,0-0.3,0-0.4,0.1c-0.1,0-0.1,0-0.2,0l-0.1,0c-0.2,0-0.4,0.1-0.6,0.1c-0.2,0.1-0.5,0.1-0.7,0.2c-0.2,0.1-0.3,0.1-0.4,0.2
		c-0.1,0-0.2,0.1-0.4,0.1c-0.2,0.1-0.3,0.1-0.4,0.2c-0.1,0-0.2,0.1-0.4,0.2c-0.2,0.1-0.4,0.2-0.6,0.2c-0.1,0-0.2,0.1-0.3,0.1v-9
		C12,6.5,15.8,3,20.5,3c4.7,0,8.5,3.5,8.5,7.7V19.8z"/>
</g>
</svg>
