<?xml version="1.0" encoding="utf-8"?>
<!-- Generator: Adobe Illustrator 22.1.0, SVG Export Plug-In . SVG Version: 6.00 Build 0)  -->
<svg version="1.1" id="Слой_1" xmlns="http://www.w3.org/2000/svg" xmlns:xlink="http://www.w3.org/1999/xlink" x="0px" y="0px"
	 viewBox="0 0 20 22.5" style="enable-background:new 0 0 20 22.5;" xml:space="preserve" fill="#f7c935">
<g>
	<path d="M8,11.3c3,0,5.6-2.6,5.6-5.6C13.7,2.5,11.1,0,8,0C5,0,2.4,2.6,2.4,5.6C2.4,8.7,5,11.3,8,11.3z M3.9,5.6
		c0-2.2,1.9-4.1,4.1-4.1c2.3,0,4.1,1.9,4.1,4.1c0,2.3-1.9,4.1-4.1,4.1C5.8,9.8,3.9,7.9,3.9,5.6z"/>
	<path d="M8,14.2c-4.4,0-8,3.6-8,8v0.3h1.5v-0.3c0-3.6,2.9-6.6,6.6-6.6c0.8,0,1.5,0.1,2,0.4l0.3,0.2v-1.6l-0.2-0.1
		C9.6,14.3,8.8,14.2,8,14.2z"/>
	<polygon points="19.1,16.6 15.2,20.5 12.8,18.2 11.8,19.2 15.2,22.6 15.9,21.7 20.1,17.6 	"/>
</g>
</svg>
